<svg width="278" height="203" viewBox="0 0 278 203" fill="none" xmlns="http://www.w3.org/2000/svg">
<path d="M52.0059 179.177H46.9199L46.8926 176.525H51.2539C52.0013 176.525 52.6257 176.42 53.127 176.21C53.6283 176 54.0065 175.695 54.2617 175.294C54.526 174.893 54.6582 174.405 54.6582 173.831C54.6582 173.193 54.5352 172.674 54.2891 172.273C54.0521 171.872 53.6784 171.58 53.168 171.398C52.6576 171.206 52.0104 171.11 51.2266 171.11H48.1367V188.05H44.377V168.144H51.2266C52.3568 168.144 53.3639 168.253 54.248 168.472C55.1413 168.681 55.8978 169.01 56.5176 169.456C57.1374 169.903 57.6068 170.463 57.9258 171.138C58.2539 171.812 58.418 172.614 58.418 173.544C58.418 174.364 58.2266 175.121 57.8438 175.814C57.4701 176.497 56.8913 177.053 56.1074 177.482C55.3327 177.91 54.3483 178.156 53.1543 178.22L52.0059 179.177ZM51.8418 188.05H45.8125L47.3848 185.097H51.8418C52.5892 185.097 53.2044 184.974 53.6875 184.728C54.1797 184.482 54.5443 184.144 54.7812 183.716C55.0273 183.278 55.1504 182.777 55.1504 182.212C55.1504 181.592 55.041 181.054 54.8223 180.599C54.6126 180.143 54.2754 179.792 53.8105 179.546C53.3548 179.3 52.7533 179.177 52.0059 179.177H48.0957L48.123 176.525H53.0996L53.9609 177.55C55.1094 177.559 56.0436 177.787 56.7637 178.234C57.4928 178.68 58.0306 179.254 58.377 179.956C58.7233 180.658 58.8965 181.415 58.8965 182.226C58.8965 183.502 58.6185 184.573 58.0625 185.439C57.5156 186.304 56.7135 186.956 55.6562 187.394C54.6081 187.831 53.3366 188.05 51.8418 188.05ZM64.4473 177.81H68.7676C70.0801 177.81 71.1966 178.028 72.1172 178.466C73.0469 178.894 73.7533 179.496 74.2363 180.271C74.7285 181.036 74.9746 181.925 74.9746 182.937C74.9746 183.666 74.8333 184.345 74.5508 184.974C74.2773 185.594 73.8763 186.136 73.3477 186.601C72.819 187.056 72.1673 187.412 71.3926 187.667C70.627 187.922 69.752 188.05 68.7676 188.05H62.123V173.257H65.7461V185.22H68.7676C69.3965 185.22 69.8978 185.115 70.2715 184.905C70.6543 184.687 70.9277 184.409 71.0918 184.071C71.265 183.725 71.3516 183.356 71.3516 182.964C71.3516 182.563 71.265 182.189 71.0918 181.843C70.9277 181.487 70.6543 181.2 70.2715 180.982C69.8978 180.763 69.3965 180.653 68.7676 180.653H64.4473V177.81ZM81.0449 173.257V188.05H77.4219V173.257H81.0449ZM101.635 173.257V176.114H94.4023V173.257H101.635ZM95.3594 173.257V188.05H91.7363V173.257H95.3594ZM104.369 173.257V188.05H100.732V173.257H104.369ZM111.26 176.101V193.737H107.637V173.257H110.986L111.26 176.101ZM120.762 180.503V180.79C120.762 181.866 120.634 182.864 120.379 183.784C120.133 184.696 119.768 185.493 119.285 186.177C118.802 186.851 118.201 187.38 117.48 187.763C116.77 188.137 115.949 188.323 115.02 188.323C114.108 188.323 113.315 188.15 112.641 187.804C111.966 187.448 111.396 186.947 110.932 186.3C110.467 185.653 110.093 184.901 109.811 184.044C109.537 183.178 109.332 182.235 109.195 181.214V180.298C109.332 179.213 109.537 178.229 109.811 177.345C110.093 176.452 110.467 175.681 110.932 175.034C111.396 174.378 111.962 173.872 112.627 173.517C113.301 173.161 114.09 172.984 114.992 172.984C115.931 172.984 116.756 173.161 117.467 173.517C118.187 173.872 118.793 174.383 119.285 175.048C119.777 175.713 120.146 176.506 120.393 177.427C120.639 178.347 120.762 179.373 120.762 180.503ZM117.139 180.79V180.503C117.139 179.847 117.079 179.241 116.961 178.685C116.842 178.12 116.66 177.627 116.414 177.208C116.168 176.78 115.849 176.447 115.457 176.21C115.065 175.973 114.591 175.855 114.035 175.855C113.479 175.855 113.001 175.946 112.6 176.128C112.199 176.31 111.87 176.57 111.615 176.907C111.36 177.245 111.16 177.646 111.014 178.11C110.877 178.566 110.786 179.072 110.74 179.628V181.898C110.822 182.572 110.982 183.178 111.219 183.716C111.456 184.254 111.802 184.682 112.258 185.001C112.723 185.32 113.324 185.48 114.062 185.48C114.618 185.48 115.092 185.357 115.484 185.11C115.876 184.864 116.195 184.527 116.441 184.099C116.688 183.661 116.865 183.16 116.975 182.595C117.084 182.03 117.139 181.428 117.139 180.79ZM122.758 180.804V180.517C122.758 179.432 122.913 178.434 123.223 177.523C123.533 176.602 123.984 175.804 124.576 175.13C125.169 174.456 125.893 173.931 126.75 173.558C127.607 173.175 128.582 172.984 129.676 172.984C130.788 172.984 131.772 173.175 132.629 173.558C133.495 173.931 134.224 174.456 134.816 175.13C135.409 175.804 135.86 176.602 136.17 177.523C136.48 178.434 136.635 179.432 136.635 180.517V180.804C136.635 181.879 136.48 182.877 136.17 183.798C135.86 184.709 135.409 185.507 134.816 186.191C134.224 186.865 133.499 187.389 132.643 187.763C131.786 188.137 130.806 188.323 129.703 188.323C128.609 188.323 127.63 188.137 126.764 187.763C125.898 187.389 125.169 186.865 124.576 186.191C123.984 185.507 123.533 184.709 123.223 183.798C122.913 182.877 122.758 181.879 122.758 180.804ZM126.367 180.517V180.804C126.367 181.451 126.431 182.057 126.559 182.622C126.686 183.187 126.882 183.684 127.146 184.112C127.411 184.541 127.753 184.878 128.172 185.124C128.6 185.361 129.111 185.48 129.703 185.48C130.286 185.48 130.788 185.361 131.207 185.124C131.626 184.878 131.968 184.541 132.232 184.112C132.506 183.684 132.706 183.187 132.834 182.622C132.962 182.057 133.025 181.451 133.025 180.804V180.517C133.025 179.879 132.962 179.282 132.834 178.726C132.706 178.161 132.506 177.664 132.232 177.235C131.968 176.798 131.622 176.456 131.193 176.21C130.774 175.955 130.268 175.827 129.676 175.827C129.092 175.827 128.591 175.955 128.172 176.21C127.753 176.456 127.411 176.798 127.146 177.235C126.882 177.664 126.686 178.161 126.559 178.726C126.431 179.282 126.367 179.879 126.367 180.517ZM142.91 182.896L148.297 173.257H151.92V188.05H148.297V178.398L142.91 188.05H139.287V173.257H142.91V182.896ZM165.141 173.257V176.114H158.838V188.05H155.229V173.257H165.141ZM170.568 176.101V193.737H166.945V173.257H170.295L170.568 176.101ZM180.07 180.503V180.79C180.07 181.866 179.943 182.864 179.688 183.784C179.441 184.696 179.077 185.493 178.594 186.177C178.111 186.851 177.509 187.38 176.789 187.763C176.078 188.137 175.258 188.323 174.328 188.323C173.417 188.323 172.624 188.15 171.949 187.804C171.275 187.448 170.705 186.947 170.24 186.3C169.775 185.653 169.402 184.901 169.119 184.044C168.846 183.178 168.641 182.235 168.504 181.214V180.298C168.641 179.213 168.846 178.229 169.119 177.345C169.402 176.452 169.775 175.681 170.24 175.034C170.705 174.378 171.27 173.872 171.936 173.517C172.61 173.161 173.398 172.984 174.301 172.984C175.24 172.984 176.064 173.161 176.775 173.517C177.495 173.872 178.102 174.383 178.594 175.048C179.086 175.713 179.455 176.506 179.701 177.427C179.947 178.347 180.07 179.373 180.07 180.503ZM176.447 180.79V180.503C176.447 179.847 176.388 179.241 176.27 178.685C176.151 178.12 175.969 177.627 175.723 177.208C175.477 176.78 175.158 176.447 174.766 176.21C174.374 175.973 173.9 175.855 173.344 175.855C172.788 175.855 172.309 175.946 171.908 176.128C171.507 176.31 171.179 176.57 170.924 176.907C170.669 177.245 170.468 177.646 170.322 178.11C170.186 178.566 170.094 179.072 170.049 179.628V181.898C170.131 182.572 170.29 183.178 170.527 183.716C170.764 184.254 171.111 184.682 171.566 185.001C172.031 185.32 172.633 185.48 173.371 185.48C173.927 185.48 174.401 185.357 174.793 185.11C175.185 184.864 175.504 184.527 175.75 184.099C175.996 183.661 176.174 183.16 176.283 182.595C176.393 182.03 176.447 181.428 176.447 180.79ZM190.857 184.905V178.083C190.857 177.582 190.771 177.149 190.598 176.784C190.424 176.42 190.16 176.137 189.805 175.937C189.449 175.736 188.998 175.636 188.451 175.636C187.968 175.636 187.544 175.718 187.18 175.882C186.824 176.046 186.551 176.278 186.359 176.579C186.168 176.871 186.072 177.208 186.072 177.591H182.449C182.449 176.98 182.595 176.401 182.887 175.855C183.178 175.299 183.593 174.806 184.131 174.378C184.678 173.941 185.329 173.599 186.086 173.353C186.852 173.107 187.708 172.984 188.656 172.984C189.777 172.984 190.775 173.175 191.65 173.558C192.535 173.931 193.227 174.497 193.729 175.253C194.239 176.01 194.494 176.962 194.494 178.11V184.564C194.494 185.302 194.54 185.935 194.631 186.464C194.731 186.984 194.877 187.435 195.068 187.818V188.05H191.391C191.217 187.676 191.085 187.202 190.994 186.628C190.903 186.045 190.857 185.47 190.857 184.905ZM191.363 179.04L191.391 181.187H189.107C188.542 181.187 188.046 181.246 187.617 181.364C187.189 181.474 186.838 181.638 186.564 181.857C186.291 182.066 186.086 182.321 185.949 182.622C185.812 182.914 185.744 183.247 185.744 183.62C185.744 183.985 185.826 184.313 185.99 184.605C186.163 184.896 186.41 185.129 186.729 185.302C187.057 185.466 187.439 185.548 187.877 185.548C188.515 185.548 189.071 185.42 189.545 185.165C190.019 184.901 190.388 184.582 190.652 184.208C190.917 183.834 191.058 183.479 191.076 183.142L192.115 184.7C191.988 185.074 191.796 185.47 191.541 185.89C191.286 186.309 190.958 186.701 190.557 187.066C190.156 187.43 189.673 187.731 189.107 187.968C188.542 188.205 187.886 188.323 187.139 188.323C186.182 188.323 185.325 188.132 184.568 187.749C183.812 187.366 183.215 186.842 182.777 186.177C182.34 185.512 182.121 184.755 182.121 183.907C182.121 183.123 182.267 182.431 182.559 181.829C182.85 181.228 183.283 180.722 183.857 180.312C184.432 179.892 185.143 179.578 185.99 179.368C186.847 179.15 187.827 179.04 188.93 179.04H191.363ZM207.688 173.257V176.114H200.441V173.257H207.688ZM210.408 173.257V188.05H206.799V173.257H210.408ZM199.539 173.257H203.107L202.711 180.64C202.647 181.724 202.533 182.677 202.369 183.497C202.205 184.308 201.986 185.006 201.713 185.589C201.439 186.163 201.107 186.633 200.715 186.997C200.323 187.362 199.867 187.631 199.348 187.804C198.837 187.968 198.263 188.05 197.625 188.05H196.518L196.477 185.138L196.996 185.097C197.315 185.069 197.589 184.983 197.816 184.837C198.053 184.691 198.254 184.482 198.418 184.208C198.591 183.935 198.732 183.584 198.842 183.155C198.96 182.718 199.051 182.207 199.115 181.624C199.188 181.032 199.238 180.348 199.266 179.573L199.539 173.257ZM217.367 182.896L222.754 173.257H226.377V188.05H222.754V178.398L217.367 188.05H213.744V173.257H217.367V182.896ZM233.773 168.144L233.377 182.075H230.328L229.932 168.144H233.773ZM229.822 186.368C229.822 185.831 230.005 185.379 230.369 185.015C230.743 184.641 231.244 184.454 231.873 184.454C232.502 184.454 232.999 184.641 233.363 185.015C233.737 185.379 233.924 185.831 233.924 186.368C233.924 186.897 233.737 187.344 233.363 187.708C232.999 188.073 232.502 188.255 231.873 188.255C231.244 188.255 230.743 188.073 230.369 187.708C230.005 187.344 229.822 186.897 229.822 186.368Z" fill="black"/>
<path d="M59.8674 115.564C38.0208 96.2575 54.597 71.9614 62.2634 64.295L83.3459 76.2737C75.3602 83.6206 64.3566 93.0438 72.3256 101.013C78.5545 107.242 96.123 97.5158 105.386 89.2106L123.594 101.668C107.622 115.084 78.8444 132.334 59.8674 115.564Z" fill="#FFB53D" stroke="#271A58" stroke-linecap="round"/>
<path d="M101.59 116.768C66.4046 85.7342 37.3053 36.5506 72.3637 9.76598C103.061 -13.6844 137.489 17.3388 137.489 17.3388C137.489 17.3388 174.988 -11.0626 203.983 11.6626C232.019 33.6375 213.194 80.586 172.637 116.79L151.604 132.401C146.756 135.257 141.094 138.081 136.161 140C131.638 137.974 126.679 135.301 121.828 132.208" fill="#AD61FF"/>
<path d="M137.463 17.5996C137.463 17.5996 103.598 -13.6844 72.9004 9.76597C23.5107 47.4958 97.7782 123.23 137.463 140C183.066 118.438 244.397 46.5667 204.52 11.6626C175.525 -11.0626 137.463 17.5996 137.463 17.5996Z" stroke="#271A58" stroke-miterlimit="10" stroke-linecap="round"/>
<path d="M133.203 54.4597C133.203 65.9682 123.878 75.2978 112.376 75.2978C100.874 75.2978 91.5493 65.9682 91.5493 54.4597" stroke="#271A58" stroke-miterlimit="10" stroke-linecap="round"/>
<path d="M183.992 54.4597C183.992 65.9682 174.668 75.2978 163.166 75.2978C151.663 75.2978 142.339 65.9682 142.339 54.4597" stroke="#271A58" stroke-miterlimit="10" stroke-linecap="round"/>
<path d="M123.352 30.0063C119.675 36.1817 111.522 40.8073 102.334 35.3366" stroke="#271A58" stroke-width="3" stroke-linecap="round"/>
<path d="M153.301 30.0063C156.978 36.1817 165.131 40.8073 174.32 35.3366" stroke="#271A58" stroke-width="3" stroke-linecap="round"/>
<ellipse cx="137.01" cy="76.7528" rx="3.83316" ry="5.74974" fill="#271A58"/>
<path d="M110.685 80.4265C107.81 85.5374 103.342 96.7921 109.248 98.1549C115.477 99.5924 116.435 90.4886 110.685 80.4265Z" fill="#F9EBFF" stroke="#271A58" stroke-linecap="round"/>
<path d="M163.578 97.8352C161.214 101.944 157.541 110.993 162.396 112.089C167.518 113.245 168.306 105.925 163.578 97.8352Z" fill="#F9EBFF" stroke="#271A58" stroke-linecap="round"/>
<path d="M222.298 118.918C241.943 101.189 218.263 70.7427 212.236 63.8159C208.803 70.5184 205.826 76.8606 201.695 82.9818C204.434 86.8097 214.458 101.09 208.882 104.064C201.695 107.897 190.233 88.2367 183.008 76.7529C187.8 71.0031 176.3 59.8034 172.946 59.0245C170.228 58.3932 169.592 61.9143 171.988 66.0286C167.802 62.7484 161.023 58.6829 156.566 59.8034C155.242 60.1362 153.954 60.8149 152.731 61.9143C151.755 62.7904 151.024 63.7063 150.504 64.6485C146.349 72.1744 154.647 85.3775 167.676 89.6898C184.446 123.23 205.434 134.137 222.298 118.918Z" fill="#FFB53D"/>
<path d="M156.566 59.8034C155.242 60.1362 153.954 60.8149 152.731 61.9143C151.755 62.7904 151.024 63.7063 150.504 64.6485M156.566 59.8034L168.072 71.7576M156.566 59.8034C161.023 58.6829 167.802 62.7484 171.988 66.0286M150.504 64.6485C146.349 72.1744 154.647 85.3775 167.676 89.6898C184.446 123.23 205.434 134.137 222.298 118.918C241.943 101.189 218.263 70.7427 212.236 63.8159C208.803 70.5184 205.826 76.8606 201.695 82.9817C204.434 86.8097 214.458 101.09 208.882 104.064C201.695 107.897 190.233 88.2367 183.008 76.7529C187.8 71.0031 176.3 59.8034 172.946 59.0245C170.228 58.3932 169.592 61.9143 171.988 66.0286M150.504 64.6485L161.497 75.5855M171.988 66.0286C173.891 67.5199 175.655 69.2451 177.177 71.0031" stroke="#271A58" stroke-linecap="round"/>
</svg>
