<svg width="95" height="109" viewBox="0 0 95 109" fill="none" xmlns="http://www.w3.org/2000/svg">
<rect y="7.5668" width="94.5136" height="94.5136" rx="47.2568" fill="#E9D4FF"/>
<mask id="mask0_4497_2048" style="mask-type:alpha" maskUnits="userSpaceOnUse" x="0" y="7" width="95" height="96">
<rect y="7.5668" width="94.5136" height="94.5136" rx="47.2568" fill="#FFE4C2"/>
</mask>
<g mask="url(#mask0_4497_2048)">
<path d="M39.0492 39.403C59.5437 34.0306 59.8587 13.2874 57.4544 3.5873L-10.4461 1.34882C-20.0633 28.0448 -32.6817 82.2823 -6.21786 85.6649C26.8619 89.8931 13.431 46.1184 39.0492 39.403Z" fill="#F9EBFF"/>
<path d="M40.5415 82.6802C38.7507 97.8024 25.0379 103.904 18.4054 105.065L142.019 116.257C136.63 111.117 128.738 98.3496 140.278 88.4008C154.704 75.9648 162.912 39.1542 129.583 35.1747C96.2547 31.1952 96.2547 54.3262 77.1033 55.0723C57.9519 55.8185 42.7799 63.7775 40.5415 82.6802Z" fill="#F9EBFF"/>
<path d="M66.7968 23.4369C75.8903 17.0158 65.0123 6.62303 64.8833 1.76709C86.5324 7.86292 137.734 26.4393 126.906 36.8846C113.371 49.9412 103.877 26.7998 88.7451 36.3148C73.613 45.8299 55.4301 31.4633 66.7968 23.4369Z" fill="#F9EBFF"/>
</g>
<path d="M23.4026 46.4163C24.1846 61.7312 26.2684 71.119 35.4453 78.8307C44.6221 86.5424 63.3452 84.0465 70.3859 69.7104C75.7119 58.8658 81.7942 38.4075 76.9294 34.5492C72.8594 31.3213 66.076 45.4701 64.5321 51.3135C66.3128 32.082 72.9485 7.04102 66.7075 6.61858C61.751 6.28308 56.331 30.0218 54.2405 41.9331C55.3655 32.4561 60.9247 2.49641 55.5562 1.00994C47.9328 -1.10088 44.627 32.9498 43.2818 42.1236C44.1289 32.5593 47.7482 2.2506 40.6159 5.32274C35.4513 7.5473 33.1349 36.0052 33.6331 43.4888C31.4825 25.7474 35.854 12.2222 29.9842 13.7062C27.8098 14.256 22.4251 27.2727 23.4026 46.4163Z" fill="#FFB53D"/>
<path d="M60.6625 53.637C52.725 54.6292 47.0381 61.422 45.8615 68.7182M35.4453 78.8307C26.2684 71.119 24.1846 61.7312 23.4026 46.4163C22.4251 27.2727 27.8098 14.256 29.9842 13.7062C35.854 12.2222 31.4825 25.7474 33.6331 43.4888C33.1349 36.0052 35.4513 7.5473 40.6159 5.32274C47.7482 2.2506 44.1289 32.5593 43.2818 42.1236C44.627 32.9498 47.9328 -1.10088 55.5562 1.00994C60.9247 2.49641 55.3655 32.4561 54.2405 41.9331C56.331 30.0218 61.751 6.28308 66.7075 6.61858C72.9485 7.04102 66.3128 32.082 64.5321 51.3135C66.076 45.4701 72.8594 31.3213 76.9294 34.5492C81.7942 38.4075 75.7119 58.8658 70.3859 69.7104C63.3452 84.0465 44.6221 86.5424 35.4453 78.8307Z" stroke="#271A58"/>
</svg>
