<svg width="185" height="191" viewBox="0 0 185 191" fill="none" xmlns="http://www.w3.org/2000/svg">
<path d="M58.3862 112.596C24.4552 82.6682 -3.60706 35.2374 30.2019 9.40742C59.8053 -13.2072 92.4637 16.9619 92.4637 16.9619C92.4637 16.9619 129.169 -10.6788 157.13 11.2365C184.167 32.4281 161.553 81.6178 126.901 112.617L106.618 127.671C101.943 130.426 96.4831 133.15 91.7252 135C87.364 133.046 82.5817 130.469 77.9031 127.485" fill="#FF9E00"/>
<path d="M28.8651 79.0589C28.8651 79.0589 21.2751 96.2046 23.9211 108.517C26.5671 120.828 36.6872 130.841 53.4787 131.876C59.9427 132.276 65.961 130.869 71.1828 129.476C73.5206 128.853 75.6691 128.194 77.5308 127.571L82.0964 125.958L92.0395 121.879C92.0395 121.879 100.939 125.61 102.031 126.007C103.124 126.404 110.384 128.643 112.423 129.29C114.462 129.937 124.951 132.524 134 131.528C143.049 130.533 150.953 124.364 150.953 124.364C150.953 124.364 156.969 119.241 158.907 112.923C160.845 106.605 160.549 99.2948 160.448 98.5986C160.347 97.9024 159.007 90.3418 158.26 87.5051C157.515 84.6683 155.147 79.1902 155.147 79.1902L153.093 82.1186L148.695 88.525L145.082 93.3984L139.896 99.4903C139.896 99.4903 141.349 103.341 140.446 105.347C139.542 107.353 137.815 109.317 137.815 109.317L133.927 111.595L130.982 112.578L126.907 112.617C126.907 112.617 122.891 111.714 121.673 111.555C120.456 111.399 116.333 109.591 116.333 109.591C116.333 109.591 121.558 105.936 122.461 105.426C123.364 104.916 128.195 100.278 129.019 98.904C129.843 97.5299 132.319 93.8351 130.786 88.9616C129.254 84.0881 123.953 82.0056 123.953 82.0056C123.953 82.0056 120.34 80.6315 115.783 82.9492C111.227 85.2668 109.695 86.9188 109.695 86.9188C109.695 86.9188 111.971 80.0025 108.398 78.8238C104.824 77.6451 101.25 84.1278 101.25 84.1278L96.9683 92.2228L95.8696 94.5801L93.5533 96.1527L86.955 91.3189C86.955 91.3189 79.5786 75.9932 73.5999 78.9398C70.9692 80.2376 73.0903 85.8561 73.0903 85.8561C73.0903 85.8561 68.0638 82.595 65.6283 82.0056C63.1929 81.4163 59.5398 81.1415 56.2804 84.5217C53.0209 87.902 52.5479 90.809 52.6273 93.6C52.7066 96.3909 56.0057 100.556 56.6741 101.106C57.3424 101.655 59.2651 103.661 59.2651 103.661L64.49 107.591L68.1828 109.833L65.076 111.133L61.667 111.979L60.0067 112.401L58.9813 112.611L58.0963 112.608L56.8847 112.795L53.8755 112.734L50.555 111.708L47.5458 110.156L44.909 107.549L43.3891 104.196L43.3586 101.246L43.9049 98.3207L37.0503 90.2991L30.6841 81.5415L28.8651 79.0589Z" fill="#D9B6FF"/>
<path d="M106.619 127.671C101.943 130.426 96.4833 133.15 91.7254 135C87.3642 133.046 82.5819 130.469 77.9033 127.485" stroke="#271A58" stroke-miterlimit="10" stroke-linecap="round"/>
<path d="M58.3862 112.596C24.4552 82.6682 -3.60706 35.2374 30.2019 9.40742C59.8053 -13.2072 92.4637 16.9619 92.4637 16.9619C92.4637 16.9619 129.169 -10.6788 157.13 11.2365C184.167 32.4281 161.553 81.6178 126.901 112.617" stroke="#271A58" stroke-miterlimit="10" stroke-linecap="round"/>
<path d="M69.0648 72.6037C80.1572 72.6037 89.1493 63.6067 89.1493 52.5083C89.1493 41.4099 80.1572 32.4129 69.0648 32.4129C57.9724 32.4129 48.9802 41.4099 48.9802 52.5083C48.9802 63.6067 57.9724 72.6037 69.0648 72.6037Z" stroke="#271A58" stroke-miterlimit="10" stroke-linecap="round"/>
<path d="M69.0648 67.6448C77.4199 67.6448 84.1931 60.8679 84.1931 52.5083C84.1931 44.1487 77.4199 37.3719 69.0648 37.3719C60.7097 37.3719 53.9365 44.1487 53.9365 52.5083C53.9365 60.8679 60.7097 67.6448 69.0648 67.6448Z" fill="#271A58"/>
<path d="M64.2275 54.1236C67.0659 54.1236 69.3669 51.8214 69.3669 48.9815C69.3669 46.1415 67.0659 43.8393 64.2275 43.8393C61.3891 43.8393 59.0881 46.1415 59.0881 48.9815C59.0881 51.8214 61.3891 54.1236 64.2275 54.1236Z" fill="white"/>
<path d="M80.9211 54.2325C82.1421 51.283 80.7423 47.9016 77.7944 46.6798C74.8465 45.4581 71.4669 46.8587 70.2459 49.8082C69.0248 52.7576 70.4246 56.1391 73.3725 57.3608C76.3204 58.5825 79.7 57.1819 80.9211 54.2325Z" fill="white"/>
<path d="M66.8827 63.608C68.6019 63.608 69.9957 62.2135 69.9957 60.4933C69.9957 58.7732 68.6019 57.3787 66.8827 57.3787C65.1635 57.3787 63.7698 58.7732 63.7698 60.4933C63.7698 62.2135 65.1635 63.608 66.8827 63.608Z" fill="white"/>
<path d="M117.66 72.6037C128.753 72.6037 137.745 63.6067 137.745 52.5083C137.745 41.4099 128.753 32.4129 117.66 32.4129C106.568 32.4129 97.5757 41.4099 97.5757 52.5083C97.5757 63.6067 106.568 72.6037 117.66 72.6037Z" stroke="#271A58" stroke-miterlimit="10" stroke-linecap="round"/>
<path d="M117.66 67.6448C126.015 67.6448 132.789 60.8679 132.789 52.5083C132.789 44.1487 126.015 37.3719 117.66 37.3719C109.305 37.3719 102.532 44.1487 102.532 52.5083C102.532 60.8679 109.305 67.6448 117.66 67.6448Z" fill="#271A58"/>
<path d="M112.823 54.1236C115.661 54.1236 117.962 51.8214 117.962 48.9815C117.962 46.1415 115.661 43.8393 112.823 43.8393C109.984 43.8393 107.683 46.1415 107.683 48.9815C107.683 51.8214 109.984 54.1236 112.823 54.1236Z" fill="white"/>
<path d="M129.519 54.2297C130.74 51.2802 129.34 47.8988 126.392 46.677C123.444 45.4553 120.065 46.8559 118.844 49.8054C117.623 52.7549 119.023 56.1363 121.97 57.358C124.918 58.5798 128.298 57.1792 129.519 54.2297Z" fill="white"/>
<path d="M115.478 63.608C117.197 63.608 118.591 62.2135 118.591 60.4933C118.591 58.7732 117.197 57.3787 115.478 57.3787C113.759 57.3787 112.365 58.7732 112.365 60.4933C112.365 62.2135 113.759 63.608 115.478 63.608Z" fill="white"/>
<path d="M99.4922 70.1578C99.4922 70.1578 99.2938 78.094 93.1259 78.323C86.958 78.552 86.2439 70.6159 86.2439 70.6159L99.4922 70.1578Z" fill="#271A58"/>
<path d="M43.9353 98.1558C43.9353 98.1558 39.8182 107.997 51.7237 112.205C64.6302 116.767 95.9091 94.571 95.9091 94.571C95.9091 94.571 103.017 76.5642 108.541 78.8971C112.176 80.433 109.591 87.0592 109.591 87.0592" stroke="#271A58" stroke-miterlimit="10" stroke-linecap="round"/>
<path d="M103.853 92.7755C103.853 92.7755 118.289 74.9947 127.603 84.3141C137.278 93.9939 126.584 103.75 115.432 109.936C99.1566 118.963 65.491 137.147 44.5458 130.365C9.24145 118.932 28.8926 79.1017 28.8926 79.1017" stroke="#271A58" stroke-miterlimit="10" stroke-linecap="round"/>
<path d="M125.571 82.9431L108.691 96.5894" stroke="#271A58" stroke-miterlimit="10" stroke-linecap="round"/>
<path d="M129.752 87.2027L113.061 101.527" stroke="#271A58" stroke-miterlimit="10" stroke-linecap="round"/>
<path d="M93.4312 96.1222C89.5065 93.3648 86.9764 91.38 86.9764 91.38C86.9764 91.38 80.3538 77.4986 74.366 78.6559C70.4931 79.404 73.1055 86.018 73.1055 86.018" stroke="#271A58" stroke-miterlimit="10" stroke-linecap="round"/>
<path d="M139.963 99.5941C139.963 99.5941 144.157 108.001 132.251 112.208C128.278 113.613 122.464 112.178 116.314 109.521" stroke="#271A58" stroke-miterlimit="10" stroke-linecap="round"/>
<path d="M92.0183 121.894C107.83 128.951 126.175 134.655 139.43 130.362C174.734 118.929 155.083 79.0986 155.083 79.0986" stroke="#271A58" stroke-miterlimit="10" stroke-linecap="round"/>
<path d="M80.1221 92.7755C80.1221 92.7755 65.6866 74.9947 56.3722 84.3141C46.6976 93.9939 57.1595 103.677 68.3112 109.863" stroke="#271A58" stroke-miterlimit="10" stroke-linecap="round"/>
<path d="M58.4045 82.9431L73.3131 94.9557" stroke="#271A58" stroke-miterlimit="10" stroke-linecap="round"/>
<path d="M54.2236 87.2027L68.4791 100.11" stroke="#271A58" stroke-miterlimit="10" stroke-linecap="round"/>
<path d="M59.0394 29.6311C58.545 29.6311 58.0628 29.3929 57.7698 28.9532C57.3029 28.2539 57.489 27.3104 58.1849 26.8401C58.5175 26.6172 66.4677 21.3926 76.7954 25.3897C77.5828 25.6951 77.9734 26.5775 77.6682 27.3654C77.363 28.1532 76.481 28.544 75.6936 28.2387C66.895 24.834 60.1656 29.1914 59.8817 29.3807C59.6223 29.5486 59.3293 29.6311 59.0394 29.6311Z" fill="#271A58"/>
<path d="M108.984 29.8906C108.489 29.8906 108.007 29.6525 107.714 29.2128C107.247 28.5135 107.433 27.5699 108.129 27.0997C108.462 26.8768 116.412 21.6522 126.74 25.6493C127.527 25.9546 127.918 26.8371 127.613 27.6249C127.307 28.4127 126.425 28.8036 125.638 28.4982C116.839 25.0935 110.11 29.4509 109.826 29.6402C109.567 29.8082 109.274 29.8906 108.984 29.8906Z" fill="#271A58"/>
<path d="M9.92188 174.127H4.83594L4.80859 171.475H9.16992C9.91732 171.475 10.5417 171.37 11.043 171.16C11.5443 170.951 11.9225 170.645 12.1777 170.244C12.4421 169.843 12.5742 169.355 12.5742 168.781C12.5742 168.143 12.4512 167.624 12.2051 167.223C11.9681 166.822 11.5944 166.53 11.084 166.348C10.5736 166.156 9.92643 166.061 9.14258 166.061H6.05273V183H2.29297V163.094H9.14258C10.2728 163.094 11.2799 163.203 12.1641 163.422C13.0573 163.632 13.8138 163.96 14.4336 164.406C15.0534 164.853 15.5228 165.413 15.8418 166.088C16.1699 166.762 16.334 167.564 16.334 168.494C16.334 169.314 16.1426 170.071 15.7598 170.764C15.3861 171.447 14.8073 172.003 14.0234 172.432C13.2487 172.86 12.2643 173.106 11.0703 173.17L9.92188 174.127ZM9.75781 183H3.72852L5.30078 180.047H9.75781C10.5052 180.047 11.1204 179.924 11.6035 179.678C12.0957 179.432 12.4603 179.094 12.6973 178.666C12.9434 178.229 13.0664 177.727 13.0664 177.162C13.0664 176.542 12.957 176.005 12.7383 175.549C12.5286 175.093 12.1914 174.742 11.7266 174.496C11.2708 174.25 10.6693 174.127 9.92188 174.127H6.01172L6.03906 171.475H11.0156L11.877 172.5C13.0254 172.509 13.9596 172.737 14.6797 173.184C15.4089 173.63 15.9466 174.204 16.293 174.906C16.6393 175.608 16.8125 176.365 16.8125 177.176C16.8125 178.452 16.5345 179.523 15.9785 180.389C15.4316 181.255 14.6296 181.906 13.5723 182.344C12.5241 182.781 11.2526 183 9.75781 183ZM22.3633 172.76H26.6836C27.9961 172.76 29.1126 172.979 30.0332 173.416C30.9629 173.844 31.6693 174.446 32.1523 175.221C32.6445 175.986 32.8906 176.875 32.8906 177.887C32.8906 178.616 32.7493 179.295 32.4668 179.924C32.1934 180.544 31.7923 181.086 31.2637 181.551C30.735 182.007 30.0833 182.362 29.3086 182.617C28.543 182.872 27.668 183 26.6836 183H20.0391V168.207H23.6621V180.17H26.6836C27.3125 180.17 27.8138 180.065 28.1875 179.855C28.5703 179.637 28.8438 179.359 29.0078 179.021C29.181 178.675 29.2676 178.306 29.2676 177.914C29.2676 177.513 29.181 177.139 29.0078 176.793C28.8438 176.438 28.5703 176.15 28.1875 175.932C27.8138 175.713 27.3125 175.604 26.6836 175.604H22.3633V172.76ZM38.9609 168.207V183H35.3379V168.207H38.9609ZM56.8984 176.738H52.209L52.1816 174.291H56.0371C56.6113 174.291 57.0807 174.232 57.4453 174.113C57.8099 173.995 58.0788 173.817 58.252 173.58C58.4342 173.343 58.5254 173.056 58.5254 172.719C58.5254 172.427 58.4707 172.176 58.3613 171.967C58.252 171.748 58.0879 171.57 57.8691 171.434C57.6595 171.297 57.3906 171.197 57.0625 171.133C56.7435 171.06 56.3698 171.023 55.9414 171.023H53.4941V183H49.8711V168.207H55.9414C56.8984 168.207 57.7598 168.294 58.5254 168.467C59.291 168.631 59.9427 168.882 60.4805 169.219C61.0182 169.556 61.4284 169.984 61.7109 170.504C62.0026 171.014 62.1484 171.616 62.1484 172.309C62.1484 172.764 62.0482 173.193 61.8477 173.594C61.6471 173.995 61.3509 174.35 60.959 174.66C60.5671 174.97 60.084 175.225 59.5098 175.426C58.9355 175.617 58.2793 175.736 57.541 175.781L56.8984 176.738ZM56.8984 183H51.2383L52.5781 180.184H56.8984C57.4271 180.184 57.8646 180.12 58.2109 179.992C58.5573 179.855 58.8125 179.66 58.9766 179.404C59.1497 179.149 59.2363 178.839 59.2363 178.475C59.2363 178.119 59.1543 177.814 58.9902 177.559C58.8353 177.294 58.5846 177.094 58.2383 176.957C57.901 176.811 57.4544 176.738 56.8984 176.738H53.166L53.1934 174.291H57.5273L58.4844 175.262C59.4688 175.326 60.2845 175.526 60.9316 175.863C61.5788 176.191 62.0618 176.611 62.3809 177.121C62.6999 177.622 62.8594 178.174 62.8594 178.775C62.8594 179.477 62.7272 180.092 62.4629 180.621C62.1986 181.15 61.8112 181.592 61.3008 181.947C60.7904 182.294 60.166 182.558 59.4277 182.74C58.6895 182.913 57.8464 183 56.8984 183ZM68.0547 172.76H72.375C73.6875 172.76 74.804 172.979 75.7246 173.416C76.6543 173.844 77.3607 174.446 77.8438 175.221C78.3359 175.986 78.582 176.875 78.582 177.887C78.582 178.616 78.4408 179.295 78.1582 179.924C77.8848 180.544 77.4837 181.086 76.9551 181.551C76.4264 182.007 75.7747 182.362 75 182.617C74.2344 182.872 73.3594 183 72.375 183H65.7305V168.207H69.3535V180.17H72.375C73.0039 180.17 73.5052 180.065 73.8789 179.855C74.2617 179.637 74.5352 179.359 74.6992 179.021C74.8724 178.675 74.959 178.306 74.959 177.914C74.959 177.513 74.8724 177.139 74.6992 176.793C74.5352 176.438 74.2617 176.15 73.8789 175.932C73.5052 175.713 73.0039 175.604 72.375 175.604H68.0547V172.76ZM84.6523 168.207V183H81.0293V168.207H84.6523ZM91.9941 177.846L97.3809 168.207H101.004V183H97.3809V173.348L91.9941 183H88.3711V168.207H91.9941V177.846ZM114.225 168.207V171.064H107.922V183H104.312V168.207H114.225ZM119.652 171.051V188.688H116.029V168.207H119.379L119.652 171.051ZM129.154 175.453V175.74C129.154 176.816 129.027 177.814 128.771 178.734C128.525 179.646 128.161 180.443 127.678 181.127C127.195 181.801 126.593 182.33 125.873 182.713C125.162 183.087 124.342 183.273 123.412 183.273C122.501 183.273 121.708 183.1 121.033 182.754C120.359 182.398 119.789 181.897 119.324 181.25C118.859 180.603 118.486 179.851 118.203 178.994C117.93 178.128 117.725 177.185 117.588 176.164V175.248C117.725 174.163 117.93 173.179 118.203 172.295C118.486 171.402 118.859 170.632 119.324 169.984C119.789 169.328 120.354 168.822 121.02 168.467C121.694 168.111 122.482 167.934 123.385 167.934C124.324 167.934 125.148 168.111 125.859 168.467C126.579 168.822 127.186 169.333 127.678 169.998C128.17 170.663 128.539 171.456 128.785 172.377C129.031 173.298 129.154 174.323 129.154 175.453ZM125.531 175.74V175.453C125.531 174.797 125.472 174.191 125.354 173.635C125.235 173.07 125.053 172.577 124.807 172.158C124.561 171.73 124.242 171.397 123.85 171.16C123.458 170.923 122.984 170.805 122.428 170.805C121.872 170.805 121.393 170.896 120.992 171.078C120.591 171.26 120.263 171.52 120.008 171.857C119.753 172.195 119.552 172.596 119.406 173.061C119.27 173.516 119.178 174.022 119.133 174.578V176.848C119.215 177.522 119.374 178.128 119.611 178.666C119.848 179.204 120.195 179.632 120.65 179.951C121.115 180.27 121.717 180.43 122.455 180.43C123.011 180.43 123.485 180.307 123.877 180.061C124.269 179.814 124.588 179.477 124.834 179.049C125.08 178.611 125.258 178.11 125.367 177.545C125.477 176.98 125.531 176.378 125.531 175.74ZM139.941 179.855V173.033C139.941 172.532 139.855 172.099 139.682 171.734C139.508 171.37 139.244 171.087 138.889 170.887C138.533 170.686 138.082 170.586 137.535 170.586C137.052 170.586 136.628 170.668 136.264 170.832C135.908 170.996 135.635 171.229 135.443 171.529C135.252 171.821 135.156 172.158 135.156 172.541H131.533C131.533 171.93 131.679 171.352 131.971 170.805C132.262 170.249 132.677 169.757 133.215 169.328C133.762 168.891 134.413 168.549 135.17 168.303C135.936 168.057 136.792 167.934 137.74 167.934C138.861 167.934 139.859 168.125 140.734 168.508C141.618 168.882 142.311 169.447 142.812 170.203C143.323 170.96 143.578 171.912 143.578 173.061V179.514C143.578 180.252 143.624 180.885 143.715 181.414C143.815 181.934 143.961 182.385 144.152 182.768V183H140.475C140.301 182.626 140.169 182.152 140.078 181.578C139.987 180.995 139.941 180.421 139.941 179.855ZM140.447 173.99L140.475 176.137H138.191C137.626 176.137 137.13 176.196 136.701 176.314C136.273 176.424 135.922 176.588 135.648 176.807C135.375 177.016 135.17 177.271 135.033 177.572C134.896 177.864 134.828 178.197 134.828 178.57C134.828 178.935 134.91 179.263 135.074 179.555C135.247 179.846 135.493 180.079 135.812 180.252C136.141 180.416 136.523 180.498 136.961 180.498C137.599 180.498 138.155 180.37 138.629 180.115C139.103 179.851 139.472 179.532 139.736 179.158C140.001 178.785 140.142 178.429 140.16 178.092L141.199 179.65C141.072 180.024 140.88 180.421 140.625 180.84C140.37 181.259 140.042 181.651 139.641 182.016C139.24 182.38 138.757 182.681 138.191 182.918C137.626 183.155 136.97 183.273 136.223 183.273C135.266 183.273 134.409 183.082 133.652 182.699C132.896 182.316 132.299 181.792 131.861 181.127C131.424 180.462 131.205 179.705 131.205 178.857C131.205 178.074 131.351 177.381 131.643 176.779C131.934 176.178 132.367 175.672 132.941 175.262C133.516 174.842 134.227 174.528 135.074 174.318C135.931 174.1 136.911 173.99 138.014 173.99H140.447ZM156.771 168.207V171.064H149.525V168.207H156.771ZM159.492 168.207V183H155.883V168.207H159.492ZM148.623 168.207H152.191L151.795 175.59C151.731 176.674 151.617 177.627 151.453 178.447C151.289 179.258 151.07 179.956 150.797 180.539C150.523 181.113 150.191 181.583 149.799 181.947C149.407 182.312 148.951 182.581 148.432 182.754C147.921 182.918 147.347 183 146.709 183H145.602L145.561 180.088L146.08 180.047C146.399 180.02 146.673 179.933 146.9 179.787C147.137 179.641 147.338 179.432 147.502 179.158C147.675 178.885 147.816 178.534 147.926 178.105C148.044 177.668 148.135 177.158 148.199 176.574C148.272 175.982 148.322 175.298 148.35 174.523L148.623 168.207ZM166.451 177.846L171.838 168.207H175.461V183H171.838V173.348L166.451 183H162.828V168.207H166.451V177.846ZM182.857 163.094L182.461 177.025H179.412L179.016 163.094H182.857ZM178.906 181.318C178.906 180.781 179.089 180.329 179.453 179.965C179.827 179.591 180.328 179.404 180.957 179.404C181.586 179.404 182.083 179.591 182.447 179.965C182.821 180.329 183.008 180.781 183.008 181.318C183.008 181.847 182.821 182.294 182.447 182.658C182.083 183.023 181.586 183.205 180.957 183.205C180.328 183.205 179.827 183.023 179.453 182.658C179.089 182.294 178.906 181.847 178.906 181.318Z" fill="black"/>
</svg>
